<svg xmlns="http://www.w3.org/2000/svg" viewBox="0 0 300 98" preserveAspectRatio="xMidYMid meet"><g featurekey="root" fill="#ffffff"></g><g featurekey="symbol1" fill="#076817" transform="matrix(4.375,0,0,4.375,10,14)"><path d="M8 0c-4.418 0-8 3.582-8 8s3.582 8 8 8 8-3.582 8-8-3.582-8-8-8zm3 4.594l1.406 1.406-5.406 5.406-3.406-3.406 1.406-1.406 2 2 4-4z"></path></g><g featurekey="text1" fill="#076817" transform="matrix(4.408604145050049,0,0,4.408604145050049,96.95296992982317,-17.245174190235286)"><path d="M7.86 10.1 l2 0 c0.12 1.28 -0.04 2.58 -0.48 3.9 c-0.48 1.5 -1.22 2.78 -1.86 3.92 c-0.48 0.84 -0.86 1.52 -1.06 2.08 l-2.32 0 c-0.2 -0.56 -0.58 -1.24 -1.08 -2.08 c-0.64 -1.14 -1.38 -2.42 -1.86 -3.92 c-0.42 -1.32 -0.58 -2.62 -0.48 -3.9 l2.02 0 c-0.28 2.7 0.96 4.88 2.06 6.82 c0.18 0.3 0.34 0.58 0.5 0.88 c0.14 -0.3 0.32 -0.58 0.48 -0.88 c1.12 -1.94 2.36 -4.12 2.08 -6.82 z  M13.48 20 l-2 0 l0 -13.48 l2 0 l0 13.48 z M15.280000000000001 19.98 l0 -9.88 l2 0 l0 9.88 l-2 0 z M16.3 8.62 c-0.64 0 -1.16 -0.52 -1.16 -1.16 s0.52 -1.14 1.16 -1.14 s1.14 0.5 1.14 1.14 s-0.5 1.16 -1.14 1.16 z M27.4 18.18 c0.48 0.56 0.68 1.26 0.68 1.82 l-2 0 c0 -0.18 -0.1 -0.5 -0.32 -0.62 c-0.34 -0.2 -0.88 0.04 -1.18 0.22 c-0.7 0.38 -1.38 0.58 -2.06 0.6 l-0.1 0 c-0.62 0 -1.2 -0.16 -1.7 -0.46 c-1.08 -0.62 -1.74 -1.84 -1.74 -3.16 l0 -2.66 c0 -0.68 0.12 -1.28 0.34 -1.8 c0.2 -0.5 0.48 -0.94 0.88 -1.28 c0.9 -0.82 2.14 -1.02 2.98 -0.94 c0.76 0.06 1.54 0.36 2.22 0.86 l0 -4.24 l2 0 l0 11.66 z M23.6 17.84 c0.6 -0.32 1.16 -0.5 1.7 -0.54 l0.1 0 l0 -3 c0 -0.5 -0.28 -1.08 -0.74 -1.56 c-0.48 -0.48 -1.1 -0.8 -1.66 -0.86 c-0.34 -0.02 -1.02 0.02 -1.46 0.44 c-0.36 0.34 -0.56 0.86 -0.56 1.6 l0 2.66 c0 0.6 0.3 1.18 0.74 1.44 c0.62 0.36 1.38 0.1 1.88 -0.18 z M32.46 19.06 c0 0.68 -0.56 1.24 -1.24 1.24 c-0.7 0 -1.26 -0.56 -1.26 -1.24 s0.56 -1.24 1.26 -1.24 c0.68 0 1.24 0.56 1.24 1.24 z M34.64 19.12 l0 -9.18 l2 0 l0 9.18 l0 0.6 c0 1.5 -0.42 2.6 -1.28 3.3 c-0.56 0.44 -1.26 0.68 -2.08 0.72 c-0.1 0.02 -0.2 0.02 -0.32 0.02 c-0.5 0 -1.04 -0.08 -1.66 -0.2 l0.44 -1.96 c1.12 0.26 1.92 0.2 2.36 -0.14 c0.36 -0.3 0.54 -0.88 0.54 -1.74 l0 -0.6 z M35.660000000000004 8.48 c-0.64 0 -1.16 -0.52 -1.16 -1.16 s0.52 -1.14 1.16 -1.14 s1.14 0.5 1.14 1.14 s-0.5 1.16 -1.14 1.16 z M42.9 20.26 c-0.64 0 -1.3 -0.08 -1.82 -0.14 c-0.86 -0.14 -1.72 -0.34 -2.16 -0.5 l0.7 -1.88 c0.52 0.2 2.82 0.66 3.86 0.48 c0.26 -0.04 0.48 -0.3 0.52 -0.58 c0.06 -0.4 -0.26 -0.8 -0.9 -1.1 c-0.46 -0.22 -1.28 -0.58 -1.96 -0.86 c-0.4 -0.18 -0.74 -0.32 -0.96 -0.42 c-1.18 -0.54 -1.88 -1.58 -1.86 -2.74 c0.02 -0.52 0.2 -1.04 0.5 -1.46 c0.32 -0.44 0.76 -0.78 1.3 -0.98 c0.68 -0.28 1.64 -0.28 2.88 -0.06 c0.92 0.18 1.76 0.44 2.1 0.58 l-0.7 1.88 c-1.04 -0.4 -2.92 -0.78 -3.58 -0.54 c-0.3 0.12 -0.48 0.36 -0.5 0.64 c0 0.34 0.24 0.66 0.68 0.86 c0.2 0.08 0.54 0.22 0.92 0.4 c0.7 0.28 1.54 0.66 2.04 0.88 c0.74 0.36 1.28 0.82 1.64 1.4 c0.34 0.54 0.48 1.16 0.38 1.78 c-0.14 1.16 -1.04 2.1 -2.14 2.3 c-0.3 0.04 -0.62 0.06 -0.94 0.06 z"></path></g></svg>
